# xmcd
#
# Track frame offsets:
# 150
# 21824
# 37907
# 60247
# 83198
# 97029
# 114553
# 154020
# 173000
# 191998
# 206417
# 223530
# 239031
# 258695
# 278441
#
# Disc length: 3951 seconds
#
#
# Revision: 0
# Processed by: cddbd v1.5.2PL0 Copyright (c) Steve Scherf et al.
# Submitted via: FreeRIP 2.944 
#
DISCID=cc0f6d0f
DTITLE=Chris de Burgh - The Ultimate Collection I
DYEAR=2005
DGENRE=Folk
TTITLE0=Windy Night
TTITLE1=Watching The World
TTITLE2=Spanish Train
TTITLE3=A Spaceman Came Travelling
TTITLE4=Broken Wings
TTITLE5=In A Country Churchyard
TTITLE6=Crusader
TTITLE7=The Girl With April In Her Eyes
TTITLE8=Sailor
TTITLE9=Shadows And Lights
TTITLE10=Don't Pay The Ferryman
TTITLE11=Living On The Island
TTITLE12=I'm Counting On You
TTITLE13=High On Emotion
TTITLE14=The Head And The Heart
EXTD=
EXTT0=
EXTT1=
EXTT2=
EXTT3=
EXTT4=
EXTT5=
EXTT6=
EXTT7=
EXTT8=
EXTT9=
EXTT10=
EXTT11=
EXTT12=
EXTT13=
EXTT14=
PLAYORDER=
